<svg width="2110" height="583" xmlns="http://www.w3.org/2000/svg" xmlns:xlink="http://www.w3.org/1999/xlink" xml:space="preserve" overflow="hidden"><g transform="translate(-914 -902)"><path d="M955.5 984.5C955.5 941.422 990.646 906.5 1034 906.5 1077.35 906.5 1112.5 941.422 1112.5 984.5 1112.5 1027.58 1077.35 1062.5 1034 1062.5 990.646 1062.5 955.5 1027.58 955.5 984.5Z" stroke="#172C51" stroke-width="4.58333" stroke-miterlimit="8" fill="#FFFFFF" fill-rule="evenodd"/><path d="M1034.74 955.085C1039.76 955.085 1043.56 956.186 1046.13 958.388 1048.69 960.59 1049.98 963.785 1049.98 967.972 1049.98 969.404 1049.83 970.721 1049.55 971.924 1049.27 973.126 1048.82 974.315 1048.21 975.49 1047.6 976.666 1046.79 977.929 1045.76 979.28 1044.73 980.63 1043.6 982.002 1042.36 983.393 1041.11 984.784 1038.97 987.101 1035.91 990.344 1030.78 995.774 1027.01 1000.52 1024.61 1004.57L1039.88 1004.57C1041.21 1004.57 1042.28 1004.49 1043.09 1004.33 1043.9 1004.16 1044.54 1003.89 1045.03 1003.51 1045.52 1003.14 1045.9 1002.64 1046.19 1002.04 1046.47 1001.43 1046.83 1000.49 1047.26 999.219L1050.71 999.219 1050.02 1011.05 1016.66 1011.05 1016.66 1009.11C1017.82 1006.27 1019.39 1003.37 1021.36 1000.39 1023.34 997.422 1026.13 993.923 1029.75 989.898 1032.89 986.439 1035.14 983.819 1036.52 982.035 1038.03 980.09 1039.16 978.408 1039.9 976.99 1040.65 975.571 1041.18 974.234 1041.51 972.978 1041.83 971.721 1041.99 970.458 1041.99 969.188 1041.99 967.162 1041.67 965.372 1041.02 963.818 1040.37 962.265 1039.38 961.042 1038.04 960.151 1036.7 959.259 1035.02 958.813 1032.99 958.813 1027.94 958.813 1024.54 961.623 1022.78 967.243L1017.88 967.243 1017.88 959.462C1021.15 957.922 1024.21 956.807 1027.06 956.118 1029.91 955.429 1032.47 955.085 1034.74 955.085Z" fill-rule="evenodd"/><text fill="#000000" fill-opacity="0" font-family="Arial,Arial_MSFontService,sans-serif" font-size="55.9683" x="1016.66" y="1004.06">2</text><path d="M916.5 1404.5C916.5 1361.42 951.422 1326.5 994.5 1326.5 1037.58 1326.5 1072.5 1361.42 1072.5 1404.5 1072.5 1447.58 1037.58 1482.5 994.5 1482.5 951.422 1482.5 916.5 1447.58 916.5 1404.5Z" stroke="#172C51" stroke-width="4.58333" stroke-miterlimit="8" fill="#FFFFFF" fill-rule="evenodd"/><path d="M997.395 1378.1 999.624 1378.1C999.462 1380.69 999.381 1384.29 999.381 1388.88L999.381 1423.49C999.381 1425.06 999.469 1426.24 999.645 1427.04 999.82 1427.83 1000.13 1428.48 1000.58 1428.98 1001.02 1429.48 1001.66 1429.87 1002.5 1430.16 1003.34 1430.44 1004.39 1430.66 1005.66 1430.81 1006.93 1430.95 1008.61 1431.06 1010.69 1431.11L1010.69 1434.07 980.739 1434.07 980.739 1431.11C983.738 1430.97 985.879 1430.79 987.162 1430.56 988.446 1430.33 989.425 1429.99 990.101 1429.53 990.776 1429.07 991.269 1428.42 991.58 1427.58 991.891 1426.75 992.046 1425.38 992.046 1423.49L992.046 1390.62C992.046 1389.54 991.857 1388.75 991.478 1388.25 991.1 1387.75 990.546 1387.5 989.817 1387.5 988.952 1387.5 987.723 1387.95 986.129 1388.84 984.535 1389.73 982.562 1390.96 980.212 1392.53L978.429 1389.41Z" fill-rule="evenodd"/><text fill="#000000" fill-opacity="0" font-family="Arial,Arial_MSFontService,sans-serif" font-size="55.9683" x="978.429" y="1427.07">1</text><path d="M1266.5 1310.5C1266.5 1267.42 1301.42 1232.5 1344.5 1232.5 1387.58 1232.5 1422.5 1267.42 1422.5 1310.5 1422.5 1353.58 1387.58 1388.5 1344.5 1388.5 1301.42 1388.5 1266.5 1353.58 1266.5 1310.5Z" stroke="#172C51" stroke-width="4.58333" stroke-miterlimit="8" fill="#FFFFFF" fill-rule="evenodd"/><path d="M1344.09 1284.39C1347.14 1284.39 1349.82 1284.86 1352.12 1285.8 1354.41 1286.75 1356.17 1288.11 1357.38 1289.88 1358.6 1291.65 1359.21 1293.76 1359.21 1296.22 1359.21 1298.52 1358.75 1300.54 1357.83 1302.28 1356.91 1304.02 1355.62 1305.54 1353.96 1306.84 1352.3 1308.13 1350.14 1309.4 1347.5 1310.65L1347.5 1311.01C1349.14 1311.31 1350.73 1311.82 1352.26 1312.53 1353.78 1313.25 1355.14 1314.17 1356.33 1315.31 1357.52 1316.44 1358.47 1317.8 1359.19 1319.38 1359.9 1320.96 1360.26 1322.76 1360.26 1324.79 1360.26 1327.93 1359.58 1330.71 1358.22 1333.14 1356.85 1335.57 1354.76 1337.49 1351.95 1338.89 1349.14 1340.3 1345.73 1341 1341.7 1341 1339.38 1341 1336.87 1340.74 1334.18 1340.21 1331.49 1339.68 1329.03 1338.99 1326.79 1338.12L1326.79 1329.53 1331.65 1329.53C1332.6 1332.34 1333.84 1334.38 1335.4 1335.65 1336.95 1336.92 1339.07 1337.56 1341.74 1337.56 1345.25 1337.56 1347.91 1336.6 1349.7 1334.68 1351.5 1332.76 1352.4 1329.92 1352.4 1326.17 1352.4 1322.22 1351.21 1319.21 1348.83 1317.13 1346.46 1315.05 1342.97 1314.01 1338.38 1314.01L1334.73 1314.01 1334.73 1310.44C1338.38 1310.23 1341.45 1309.53 1343.95 1308.34 1346.45 1307.15 1348.31 1305.62 1349.52 1303.76 1350.74 1301.89 1351.35 1299.8 1351.35 1297.48 1351.35 1294.48 1350.55 1292.17 1348.95 1290.55 1347.36 1288.92 1345.04 1288.11 1341.98 1288.11 1339.44 1288.11 1337.38 1288.8 1335.78 1290.18 1334.19 1291.56 1333.01 1293.67 1332.26 1296.5L1327.39 1296.5 1327.39 1288.8C1330.53 1287.32 1333.46 1286.21 1336.19 1285.48 1338.92 1284.75 1341.55 1284.39 1344.09 1284.39Z" fill-rule="evenodd"/><text fill="#000000" fill-opacity="0" font-family="Arial,Arial_MSFontService,sans-serif" font-size="56.6167" x="1326.79" y="1333.92">3</text><path d="M1.87907-1.3118 132.267 185.46 128.509 188.084-1.87907 1.3118ZM139.039 175.143 143.506 205.562 116.49 190.884Z" transform="matrix(-1 0 0 1 1173.01 1127.5)"/><path d="M1091.18 1037.94 1275.68 1237.19 1272.32 1240.3 1087.82 1041.06ZM1280.97 1226.04 1289.57 1255.56 1260.8 1244.72Z"/><path d="M1192.85 1073.05C1194.56 1073.05 1195.9 1073.62 1196.89 1074.74 1197.87 1075.86 1198.37 1077.32 1198.37 1079.13 1198.37 1080.48 1198.11 1081.88 1197.6 1083.31L1198.12 1083.51C1200.77 1079.92 1203.32 1077.28 1205.76 1075.61 1208.21 1073.93 1210.69 1073.1 1213.2 1073.1 1215.17 1073.1 1216.82 1073.24 1218.14 1073.54L1216.2 1082.62 1212.02 1082.62C1211.86 1081.48 1211.63 1080.61 1211.34 1079.98 1211.04 1079.36 1210.69 1078.93 1210.28 1078.69 1209.88 1078.44 1209.36 1078.32 1208.74 1078.32 1207.77 1078.32 1206.71 1078.74 1205.56 1079.58 1204.41 1080.42 1203.12 1081.73 1201.69 1083.51 1200.26 1085.29 1199.12 1087.01 1198.27 1088.66 1197.41 1090.31 1196.71 1092.4 1196.14 1094.94L1192.29 1112.49 1185.28 1112.49 1191.15 1086.79C1191.53 1085.17 1191.77 1083.92 1191.88 1083.02 1191.99 1082.13 1192.04 1081.39 1192.04 1080.8 1192.04 1079.71 1191.87 1078.93 1191.52 1078.44 1191.17 1077.96 1190.61 1077.72 1189.86 1077.72 1189.02 1077.72 1188.13 1078.06 1187.2 1078.75 1186.27 1079.44 1184.99 1080.69 1183.37 1082.5L1181.06 1080.23C1183.55 1077.63 1185.63 1075.79 1187.3 1074.7 1188.98 1073.6 1190.83 1073.05 1192.85 1073.05Z" fill-rule="evenodd"/><text fill="#000000" fill-opacity="0" font-family="Arial,Arial_MSFontService,sans-serif" font-size="39.4331" x="1181.06" y="1107.56">­ЮЉЪ</text><path d="M1210.03 1047.16 1220.2 1055.95 1220.2 1058.3 1210.03 1067.1 1207.88 1064.67 1214.36 1059.03 1189.64 1059.03 1189.64 1055.22 1214.36 1055.22 1207.88 1049.59Z" fill-rule="evenodd"/><text fill="#000000" fill-opacity="0" font-family="Arial,Arial_MSFontService,sans-serif" font-size="19.9395" x="1189.64" y="1064.6">нд</text><path d="M1228.22 1090.97 1230.03 1090.97C1229.99 1092.06 1229.96 1093.04 1229.94 1093.9 1229.92 1094.77 1229.91 1095.6 1229.9 1096.42 1229.89 1097.23 1229.88 1098.04 1229.88 1098.83L1229.88 1121.47C1229.88 1122.08 1229.9 1122.62 1229.94 1123.06 1229.98 1123.51 1230.05 1123.89 1230.14 1124.19 1230.23 1124.5 1230.35 1124.76 1230.49 1124.98 1230.64 1125.2 1230.82 1125.39 1231.02 1125.55 1231.25 1125.79 1231.57 1125.97 1231.97 1126.1 1232.37 1126.23 1232.87 1126.34 1233.49 1126.43 1234.1 1126.52 1234.84 1126.59 1235.71 1126.64 1236.57 1126.69 1237.61 1126.72 1238.82 1126.74L1238.82 1129.33 1215.2 1129.33 1215.2 1126.74C1216.37 1126.7 1217.36 1126.66 1218.18 1126.61 1218.99 1126.56 1219.69 1126.49 1220.26 1126.4 1220.84 1126.31 1221.3 1126.21 1221.65 1126.1 1222 1125.99 1222.3 1125.86 1222.56 1125.7 1222.83 1125.52 1223.07 1125.33 1223.27 1125.12 1223.47 1124.91 1223.63 1124.65 1223.75 1124.33 1223.87 1124.01 1223.96 1123.62 1224.03 1123.17 1224.1 1122.71 1224.14 1122.14 1224.14 1121.47L1224.14 1100.11C1224.14 1099.34 1223.99 1098.79 1223.69 1098.47 1223.39 1098.16 1222.96 1098 1222.41 1098 1221.79 1098 1220.88 1098.32 1219.67 1098.95 1218.46 1099.59 1216.89 1100.53 1214.96 1101.78 1214.7 1101.32 1214.46 1100.87 1214.25 1100.41 1214.03 1099.95 1213.8 1099.49 1213.56 1099.01 1216.02 1097.66 1218.46 1096.31 1220.87 1094.97 1223.29 1093.63 1225.73 1092.3 1228.22 1090.97Z" fill-rule="evenodd"/><text fill="#000000" fill-opacity="0" font-family="Arial,Arial_MSFontService,sans-serif" font-size="38.3633" x="1213.56" y="1124.54">1</text><path d="M1014.96 1192.29C1013.53 1192.29 1012.02 1192.35 1010.42 1192.46L1005.24 1215.92 1010.02 1215.92C1013.94 1215.92 1017.03 1215.4 1019.3 1214.34 1021.57 1213.29 1023.37 1211.56 1024.69 1209.15 1026.01 1206.75 1026.68 1204.16 1026.68 1201.37 1026.68 1200.21 1026.57 1199.18 1026.35 1198.27 1026.14 1197.37 1025.85 1196.62 1025.5 1196.02 1025.15 1195.43 1024.7 1194.9 1024.16 1194.44 1023.62 1193.98 1022.95 1193.58 1022.14 1193.25 1021.33 1192.91 1020.39 1192.67 1019.32 1192.52 1018.25 1192.37 1016.8 1192.29 1014.96 1192.29ZM998.712 1188.73 1016.75 1188.73C1019.61 1188.73 1021.95 1188.9 1023.76 1189.23 1025.57 1189.57 1027.12 1190.08 1028.4 1190.75 1029.68 1191.43 1030.76 1192.3 1031.62 1193.37 1032.49 1194.44 1033.13 1195.64 1033.57 1196.98 1034 1198.31 1034.21 1199.74 1034.21 1201.25 1034.21 1205.41 1032.94 1208.95 1030.4 1211.87 1027.87 1214.79 1024.12 1217 1019.18 1218.52L1019.18 1218.96C1020.48 1219.93 1021.52 1221.1 1022.32 1222.45 1023.12 1223.8 1023.76 1225.68 1024.24 1228.08L1025.18 1232.78C1025.47 1234.27 1025.81 1235.6 1026.19 1236.79 1026.57 1237.98 1027.02 1238.93 1027.55 1239.63 1028.07 1240.33 1028.67 1240.86 1029.33 1241.21 1029.99 1241.56 1030.96 1241.85 1032.23 1242.06L1031.82 1244.05 1020.6 1244.05C1019.73 1241.64 1018.96 1238.78 1018.29 1235.46L1016.5 1226.86C1016.21 1225.38 1015.85 1224.13 1015.43 1223.12 1015.01 1222.1 1014.51 1221.32 1013.93 1220.77 1013.35 1220.21 1012.67 1219.85 1011.9 1219.67 1011.13 1219.5 1010.2 1219.41 1009.09 1219.41L1004.47 1219.41 1001.63 1232.25C1001.39 1233.31 1001.22 1234.15 1001.12 1234.77 1001.03 1235.39 1000.95 1236.04 1000.88 1236.73 1000.81 1237.42 1000.78 1238.04 1000.78 1238.58 1000.78 1239.41 1000.91 1240.07 1001.18 1240.54 1001.45 1241.02 1001.86 1241.36 1002.4 1241.58 1002.94 1241.79 1003.87 1241.95 1005.2 1242.06L1004.75 1244.05 988.094 1244.05 988.54 1242.06C989.567 1241.9 990.337 1241.64 990.85 1241.27 991.363 1240.91 991.796 1240.4 992.147 1239.75 992.498 1239.1 992.822 1238.31 993.12 1237.38 993.417 1236.45 993.863 1234.65 994.457 1231.97L1001.35 1200.76C1001.94 1198.06 1002.24 1195.93 1002.24 1194.36 1002.24 1193.04 1001.93 1192.12 1001.31 1191.61 1000.68 1191.09 999.672 1190.8 998.267 1190.71Z" fill-rule="evenodd"/><text fill="#000000" fill-opacity="0" font-family="Arial,Arial_MSFontService,sans-serif" font-size="55.3198" x="988.094" y="1237.13">­ЮЉЁ</text><path d="M1028.49 1163.07 1038.66 1171.86 1038.66 1174.21 1028.49 1183.01 1026.34 1180.57 1032.83 1174.94 1022.82 1174.94 1008.11 1174.94 998.503 1174.94 998.503 1171.13 1008.11 1171.13 1022.82 1171.13 1032.83 1171.13 1026.34 1165.5Z" fill-rule="evenodd"/><path d="M1055.27 1222.53 1057.09 1222.53C1057.05 1223.62 1057.02 1224.6 1057 1225.46 1056.98 1226.33 1056.97 1227.17 1056.96 1227.98 1056.95 1228.79 1056.94 1229.6 1056.94 1230.39L1056.94 1253.03C1056.94 1253.64 1056.96 1254.18 1057 1254.62 1057.04 1255.07 1057.11 1255.45 1057.2 1255.75 1057.29 1256.06 1057.4 1256.32 1057.55 1256.54 1057.7 1256.76 1057.88 1256.95 1058.07 1257.11 1058.31 1257.35 1058.63 1257.53 1059.03 1257.66 1059.42 1257.79 1059.93 1257.9 1060.55 1257.99 1061.16 1258.08 1061.9 1258.15 1062.77 1258.2 1063.63 1258.25 1064.67 1258.28 1065.88 1258.3L1065.88 1260.89 1042.26 1260.89 1042.26 1258.3C1043.43 1258.26 1044.42 1258.22 1045.24 1258.17 1046.05 1258.12 1046.75 1258.05 1047.32 1257.96 1047.9 1257.87 1048.36 1257.77 1048.71 1257.66 1049.05 1257.55 1049.36 1257.42 1049.62 1257.26 1049.89 1257.08 1050.13 1256.89 1050.33 1256.68 1050.53 1256.47 1050.69 1256.21 1050.81 1255.89 1050.93 1255.57 1051.02 1255.18 1051.09 1254.73 1051.16 1254.27 1051.19 1253.7 1051.19 1253.03L1051.19 1231.67C1051.19 1230.9 1051.05 1230.35 1050.75 1230.03 1050.45 1229.72 1050.02 1229.56 1049.47 1229.56 1048.85 1229.56 1047.94 1229.88 1046.73 1230.51 1045.51 1231.15 1043.95 1232.09 1042.02 1233.34 1041.76 1232.88 1041.52 1232.43 1041.31 1231.97 1041.09 1231.51 1040.86 1231.05 1040.62 1230.57 1043.08 1229.22 1045.52 1227.88 1047.93 1226.53 1050.35 1225.19 1052.79 1223.86 1055.27 1222.53Z" fill-rule="evenodd"/><text fill="#000000" fill-opacity="0" font-family="Arial,Arial_MSFontService,sans-serif" font-size="38.3633" x="1040.62" y="1256.1">1</text><path d="M1751.5 983.5C1751.5 940.422 1786.42 905.5 1829.5 905.5 1872.58 905.5 1907.5 940.422 1907.5 983.5 1907.5 1026.58 1872.58 1061.5 1829.5 1061.5 1786.42 1061.5 1751.5 1026.58 1751.5 983.5Z" stroke="#172C51" stroke-width="4.58333" stroke-miterlimit="8" fill="#FFFFFF" fill-rule="evenodd"/><path d="M1829.34 957.514C1834.37 957.514 1838.16 958.615 1840.73 960.817 1843.29 963.019 1844.58 966.214 1844.58 970.401 1844.58 971.833 1844.44 973.15 1844.15 974.353 1843.87 975.555 1843.42 976.744 1842.82 977.919 1842.21 979.094 1841.39 980.358 1840.36 981.708 1839.34 983.059 1838.2 984.431 1836.96 985.822 1835.72 987.213 1833.57 989.53 1830.52 992.772 1825.38 998.203 1821.61 1002.94 1819.21 1007L1834.49 1007C1835.81 1007 1836.88 1006.92 1837.69 1006.75 1838.5 1006.59 1839.15 1006.32 1839.63 1005.94 1840.12 1005.57 1840.51 1005.07 1840.79 1004.46 1841.07 1003.86 1841.43 1002.92 1841.86 1001.65L1845.31 1001.65 1844.62 1013.48 1811.26 1013.48 1811.26 1011.54C1812.43 1008.7 1813.99 1005.8 1815.97 1002.82 1817.94 999.851 1820.73 996.352 1824.36 992.327 1827.49 988.868 1829.75 986.248 1831.12 984.464 1832.64 982.519 1833.76 980.837 1834.51 979.419 1835.25 978 1835.78 976.663 1836.11 975.406 1836.43 974.15 1836.59 972.887 1836.59 971.617 1836.59 969.591 1836.27 967.801 1835.62 966.247 1834.97 964.694 1833.98 963.471 1832.64 962.58 1831.31 961.688 1829.62 961.242 1827.6 961.242 1822.54 961.242 1819.14 964.052 1817.38 969.672L1812.48 969.672 1812.48 961.891C1815.75 960.351 1818.81 959.236 1821.66 958.547 1824.51 957.858 1827.07 957.514 1829.34 957.514Z" fill-rule="evenodd"/><text fill="#000000" fill-opacity="0" font-family="Arial,Arial_MSFontService,sans-serif" font-size="55.9683" x="1811.26" y="1006.49">2</text><path d="M1712.5 1403.5C1712.5 1360.42 1747.42 1325.5 1790.5 1325.5 1833.58 1325.5 1868.5 1360.42 1868.5 1403.5 1868.5 1446.58 1833.58 1481.5 1790.5 1481.5 1747.42 1481.5 1712.5 1446.58 1712.5 1403.5Z" stroke="#172C51" stroke-width="4.58333" stroke-miterlimit="8" fill="#FFFFFF" fill-rule="evenodd"/><path d="M1792.86 1377.53 1795.09 1377.53C1794.92 1380.12 1794.84 1383.71 1794.84 1388.31L1794.84 1422.92C1794.84 1424.48 1794.93 1425.67 1795.11 1426.46 1795.28 1427.26 1795.59 1427.91 1796.04 1428.41 1796.48 1428.91 1797.13 1429.3 1797.96 1429.58 1798.8 1429.87 1799.86 1430.08 1801.12 1430.23 1802.39 1430.38 1804.07 1430.48 1806.15 1430.54L1806.15 1433.49 1776.2 1433.49 1776.2 1430.54C1779.2 1430.4 1781.34 1430.22 1782.62 1429.99 1783.91 1429.76 1784.89 1429.41 1785.56 1428.96 1786.24 1428.5 1786.73 1427.85 1787.04 1427.01 1787.35 1426.17 1787.51 1424.81 1787.51 1422.92L1787.51 1390.05C1787.51 1388.97 1787.32 1388.18 1786.94 1387.68 1786.56 1387.18 1786.01 1386.93 1785.28 1386.93 1784.41 1386.93 1783.18 1387.37 1781.59 1388.27 1780 1389.16 1778.02 1390.39 1775.67 1391.95L1773.89 1388.83Z" fill-rule="evenodd"/><text fill="#000000" fill-opacity="0" font-family="Arial,Arial_MSFontService,sans-serif" font-size="55.9683" x="1773.89" y="1426.5">1</text><path d="M2061.5 1309.5C2061.5 1266.42 2096.42 1231.5 2139.5 1231.5 2182.58 1231.5 2217.5 1266.42 2217.5 1309.5 2217.5 1352.58 2182.58 1387.5 2139.5 1387.5 2096.42 1387.5 2061.5 1352.58 2061.5 1309.5Z" stroke="#172C51" stroke-width="4.58333" stroke-miterlimit="8" fill="#FFFFFF" fill-rule="evenodd"/><path d="M2139.55 1283.81C2142.61 1283.81 2145.28 1284.28 2147.58 1285.23 2149.87 1286.18 2151.63 1287.53 2152.85 1289.3 2154.06 1291.07 2154.67 1293.19 2154.67 1295.65 2154.67 1297.94 2154.21 1299.96 2153.29 1301.7 2152.37 1303.45 2151.08 1304.97 2149.42 1306.26 2147.76 1307.56 2145.61 1308.83 2142.96 1310.07L2142.96 1310.44C2144.61 1310.74 2146.19 1311.24 2147.72 1311.96 2149.25 1312.67 2150.6 1313.6 2151.79 1314.73 2152.98 1315.87 2153.93 1317.23 2154.65 1318.81 2155.37 1320.39 2155.72 1322.19 2155.72 1324.22 2155.72 1327.35 2155.04 1330.13 2153.68 1332.57 2152.31 1335 2150.23 1336.92 2147.42 1338.32 2144.61 1339.73 2141.19 1340.43 2137.16 1340.43 2134.84 1340.43 2132.33 1340.17 2129.64 1339.64 2126.96 1339.11 2124.49 1338.42 2122.25 1337.55L2122.25 1328.96 2127.11 1328.96C2128.06 1331.77 2129.31 1333.81 2130.86 1335.08 2132.41 1336.35 2134.53 1336.98 2137.2 1336.98 2140.72 1336.98 2143.37 1336.02 2145.17 1334.11 2146.96 1332.19 2147.86 1329.35 2147.86 1325.6 2147.86 1321.65 2146.67 1318.64 2144.29 1316.56 2141.92 1314.48 2138.43 1313.44 2133.84 1313.44L2130.19 1313.44 2130.19 1309.87C2133.84 1309.65 2136.91 1308.95 2139.41 1307.76 2141.91 1306.57 2143.77 1305.05 2144.98 1303.18 2146.2 1301.32 2146.81 1299.23 2146.81 1296.9 2146.81 1293.9 2146.01 1291.59 2144.42 1289.97 2142.82 1288.35 2140.5 1287.54 2137.45 1287.54 2134.91 1287.54 2132.84 1288.23 2131.25 1289.61 2129.65 1290.99 2128.48 1293.09 2127.72 1295.93L2122.86 1295.93 2122.86 1288.23C2125.99 1286.74 2128.92 1285.64 2131.65 1284.91 2134.38 1284.18 2137.01 1283.81 2139.55 1283.81Z" fill-rule="evenodd"/><text fill="#000000" fill-opacity="0" font-family="Arial,Arial_MSFontService,sans-serif" font-size="56.6167" x="2122.25" y="1333.35">3</text><path d="M0.563339-2.22135 177.152 42.5619 176.025 47.0046-0.563339 2.22135ZM175.526 30.3285 198.802 50.4167 168.766 56.9847Z" transform="matrix(-1 0 0 1 2065.3 1339.5)"/><path d="M2007.53 1355.28 1871.45 1075.11 1875.57 1073.11 2011.65 1353.28ZM1863.15 1084.24 1863.5 1053.5 1887.88 1072.23Z"/><path d="M1971.1 1393.43C1972.8 1393.43 1974.14 1393.99 1975.13 1395.11 1976.12 1396.23 1976.61 1397.7 1976.61 1399.51 1976.61 1400.86 1976.35 1402.25 1975.84 1403.69L1976.37 1403.89C1979.01 1400.29 1981.56 1397.66 1984.01 1395.98 1986.45 1394.31 1988.93 1393.47 1991.44 1393.47 1993.42 1393.47 1995.06 1393.62 1996.39 1393.92L1994.44 1403 1990.27 1403C1990.11 1401.86 1989.88 1400.98 1989.58 1400.36 1989.28 1399.74 1988.93 1399.31 1988.52 1399.06 1988.12 1398.82 1987.61 1398.7 1986.98 1398.7 1986.01 1398.7 1984.95 1399.12 1983.8 1399.96 1982.66 1400.79 1981.37 1402.1 1979.93 1403.89 1978.5 1405.67 1977.36 1407.39 1976.51 1409.03 1975.66 1410.68 1974.95 1412.78 1974.38 1415.32L1970.53 1432.86 1963.52 1432.86 1969.4 1407.17C1969.77 1405.55 1970.02 1404.29 1970.13 1403.4 1970.23 1402.51 1970.29 1401.77 1970.29 1401.17 1970.29 1400.09 1970.11 1399.31 1969.76 1398.82 1969.41 1398.34 1968.86 1398.09 1968.1 1398.09 1967.26 1398.09 1966.38 1398.44 1965.44 1399.13 1964.51 1399.81 1963.24 1401.06 1961.61 1402.87L1959.3 1400.6C1961.79 1398.01 1963.87 1396.17 1965.55 1395.07 1967.22 1393.98 1969.07 1393.43 1971.1 1393.43Z" fill-rule="evenodd"/><text fill="#000000" fill-opacity="0" font-family="Arial,Arial_MSFontService,sans-serif" font-size="39.4331" x="1959.3" y="1427.94">­ЮЉЪ</text><path d="M1988.27 1367.53 1998.44 1376.33 1998.44 1378.68 1988.27 1387.47 1986.12 1385.04 1992.6 1379.41 1967.88 1379.41 1967.88 1375.6 1992.6 1375.6 1986.12 1369.97Z" fill-rule="evenodd"/><text fill="#000000" fill-opacity="0" font-family="Arial,Arial_MSFontService,sans-serif" font-size="19.9395" x="1967.88" y="1384.98">нд</text><path d="M2006.04 1411.14C2008.1 1411.14 2009.86 1411.37 2011.32 1411.84 2012.78 1412.3 2013.97 1412.93 2014.88 1413.73 2015.8 1414.52 2016.46 1415.48 2016.86 1416.59 2017.27 1417.7 2017.48 1418.9 2017.48 1420.19 2017.48 1420.97 2017.42 1421.69 2017.31 1422.35 2017.2 1423.02 2017.01 1423.67 2016.75 1424.32 2016.48 1424.96 2016.12 1425.61 2015.69 1426.27 2015.25 1426.92 2014.71 1427.62 2014.05 1428.35 2013.55 1428.99 2012.91 1429.72 2012.11 1430.56 2011.32 1431.39 2010.45 1432.28 2009.51 1433.24 2008.56 1434.19 2007.58 1435.18 2006.54 1436.22 2005.51 1437.25 2004.51 1438.27 2003.54 1439.28 2002.56 1440.3 2001.67 1441.28 2000.85 1442.23 2000.04 1443.19 1999.38 1444.06 1998.86 1444.85L2009.88 1444.85C2010.81 1444.85 2011.56 1444.82 2012.11 1444.75 2012.67 1444.68 2013.13 1444.53 2013.5 1444.29 2013.87 1444.05 2014.18 1443.69 2014.44 1443.2 2014.7 1442.71 2014.99 1442.04 2015.33 1441.19L2018.1 1441.19C2018 1442.6 2017.91 1444.02 2017.82 1445.45 2017.73 1446.88 2017.63 1448.3 2017.53 1449.71L1992.31 1449.71 1992.31 1448.16C1992.78 1447.09 1993.34 1446.03 1993.97 1444.99 1994.61 1443.94 1995.32 1442.89 1996.12 1441.82 1996.91 1440.74 1997.82 1439.64 1998.83 1438.49 1999.84 1437.35 2000.96 1436.17 2002.2 1434.93 2004.06 1433.07 2005.58 1431.47 2006.75 1430.15 2007.92 1428.83 2008.85 1427.66 2009.52 1426.62 2010.2 1425.59 2010.66 1424.64 2010.91 1423.77 2011.16 1422.89 2011.28 1421.96 2011.28 1420.97 2011.28 1419.95 2011.14 1419.02 2010.85 1418.17 2010.56 1417.31 2010.15 1416.59 2009.61 1415.99 2009.08 1415.4 2008.4 1414.93 2007.57 1414.59 2006.75 1414.25 2005.8 1414.09 2004.73 1414.09 2002.88 1414.09 2001.33 1414.59 2000.08 1415.59 1998.83 1416.59 1997.86 1418.05 1997.16 1419.95L1993.26 1419.95 1993.26 1414.14C1995.8 1413.09 1998.14 1412.33 2000.27 1411.85 2002.41 1411.37 2004.33 1411.14 2006.04 1411.14Z" fill-rule="evenodd"/><text fill="#000000" fill-opacity="0" font-family="Arial,Arial_MSFontService,sans-serif" font-size="38.5718" x="1992.31" y="1444.89">2</text><path d="M1963.31 1115.53C1961.88 1115.53 1960.37 1115.58 1958.78 1115.69L1953.59 1139.15 1958.37 1139.15C1962.29 1139.15 1965.38 1138.63 1967.65 1137.57 1969.92 1136.52 1971.72 1134.79 1973.04 1132.39 1974.37 1129.98 1975.03 1127.39 1975.03 1124.61 1975.03 1123.44 1974.92 1122.41 1974.7 1121.51 1974.49 1120.6 1974.2 1119.85 1973.85 1119.26 1973.5 1118.66 1973.05 1118.13 1972.51 1117.68 1971.97 1117.22 1971.3 1116.82 1970.49 1116.48 1969.68 1116.14 1968.74 1115.9 1967.67 1115.75 1966.6 1115.6 1965.15 1115.53 1963.31 1115.53ZM1947.06 1111.96 1965.1 1111.96C1967.96 1111.96 1970.3 1112.13 1972.11 1112.47 1973.92 1112.81 1975.47 1113.31 1976.75 1113.99 1978.03 1114.66 1979.11 1115.53 1979.97 1116.6 1980.84 1117.67 1981.48 1118.87 1981.92 1120.21 1982.35 1121.55 1982.57 1122.97 1982.57 1124.48 1982.57 1128.64 1981.3 1132.18 1978.76 1135.1 1976.22 1138.02 1972.47 1140.24 1967.53 1141.75L1967.53 1142.19C1968.83 1143.17 1969.87 1144.33 1970.67 1145.68 1971.47 1147.03 1972.11 1148.91 1972.6 1151.31L1973.53 1156.01C1973.82 1157.5 1974.16 1158.84 1974.54 1160.03 1974.92 1161.22 1975.37 1162.16 1975.9 1162.86 1976.43 1163.57 1977.02 1164.09 1977.68 1164.44 1978.34 1164.8 1979.31 1165.08 1980.58 1165.3L1980.17 1167.28 1968.95 1167.28C1968.08 1164.88 1967.31 1162.01 1966.64 1158.69L1964.85 1150.1C1964.56 1148.61 1964.2 1147.36 1963.78 1146.35 1963.36 1145.34 1962.86 1144.55 1962.28 1144 1961.7 1143.44 1961.02 1143.08 1960.25 1142.9 1959.48 1142.73 1958.55 1142.64 1957.44 1142.64L1952.82 1142.64 1949.98 1155.49C1949.74 1156.54 1949.57 1157.38 1949.47 1158 1949.38 1158.62 1949.3 1159.28 1949.23 1159.97 1949.16 1160.65 1949.13 1161.27 1949.13 1161.81 1949.13 1162.65 1949.27 1163.3 1949.54 1163.78 1949.81 1164.25 1950.21 1164.59 1950.75 1164.81 1951.29 1165.02 1952.22 1165.19 1953.55 1165.3L1953.1 1167.28 1936.45 1167.28 1936.89 1165.3C1937.92 1165.13 1938.69 1164.87 1939.2 1164.5 1939.71 1164.14 1940.15 1163.63 1940.5 1162.98 1940.85 1162.34 1941.17 1161.55 1941.47 1160.61 1941.77 1159.68 1942.21 1157.88 1942.81 1155.2L1949.7 1124C1950.29 1121.3 1950.59 1119.16 1950.59 1117.59 1950.59 1116.27 1950.28 1115.35 1949.66 1114.84 1949.04 1114.33 1948.02 1114.03 1946.62 1113.95Z" fill-rule="evenodd"/><text fill="#000000" fill-opacity="0" font-family="Arial,Arial_MSFontService,sans-serif" font-size="55.3198" x="1936.45" y="1160.37">­ЮЉЁ</text><path d="M1976.84 1086.3 1987.01 1095.09 1987.01 1097.44 1976.84 1106.24 1974.69 1103.81 1981.18 1098.17 1971.17 1098.17 1956.46 1098.17 1946.85 1098.17 1946.85 1094.36 1956.46 1094.36 1971.17 1094.36 1981.18 1094.36 1974.69 1088.73Z" fill-rule="evenodd"/><path d="M2003.2 1145.55C2005.27 1145.55 2007.03 1145.79 2008.49 1146.25 2009.95 1146.72 2011.14 1147.35 2012.05 1148.14 2012.96 1148.94 2013.62 1149.89 2014.03 1151 2014.44 1152.12 2014.64 1153.32 2014.64 1154.61 2014.64 1155.38 2014.59 1156.1 2014.48 1156.77 2014.37 1157.43 2014.18 1158.09 2013.91 1158.73 2013.64 1159.38 2013.29 1160.03 2012.85 1160.68 2012.42 1161.34 2011.87 1162.03 2011.22 1162.77 2010.72 1163.4 2010.07 1164.14 2009.28 1164.97 2008.49 1165.81 2007.62 1166.7 2006.67 1167.65 2005.73 1168.61 2004.74 1169.6 2003.71 1170.63 2002.68 1171.66 2001.68 1172.69 2000.7 1173.7 1999.73 1174.71 1998.84 1175.7 1998.02 1176.65 1997.21 1177.6 1996.54 1178.48 1996.03 1179.27L2007.05 1179.27C2007.98 1179.27 2008.72 1179.23 2009.28 1179.17 2009.84 1179.1 2010.3 1178.94 2010.67 1178.7 2011.03 1178.47 2011.35 1178.1 2011.6 1177.62 2011.86 1177.13 2012.16 1176.46 2012.5 1175.61L2015.27 1175.61C2015.17 1177.02 2015.07 1178.44 2014.98 1179.87 2014.89 1181.3 2014.8 1182.71 2014.7 1184.12L1989.47 1184.12 1989.47 1182.58C1989.95 1181.5 1990.51 1180.45 1991.14 1179.4 1991.78 1178.36 1992.49 1177.3 1993.29 1176.23 1994.08 1175.16 1994.98 1174.05 1996 1172.91 1997.01 1171.77 1998.13 1170.58 1999.36 1169.35 2001.23 1167.48 2002.75 1165.89 2003.92 1164.57 2005.09 1163.25 2006.01 1162.07 2006.69 1161.04 2007.36 1160.01 2007.83 1159.06 2008.07 1158.18 2008.32 1157.31 2008.45 1156.37 2008.45 1155.38 2008.45 1154.37 2008.3 1153.44 2008.01 1152.58 2007.73 1151.73 2007.31 1151 2006.78 1150.41 2006.24 1149.81 2005.56 1149.35 2004.74 1149.01 2003.91 1148.67 2002.97 1148.5 2001.89 1148.5 2000.05 1148.5 1998.5 1149 1997.25 1150.01 1996 1151.01 1995.02 1152.46 1994.33 1154.37L1990.43 1154.37 1990.43 1148.56C1992.97 1147.51 1995.31 1146.74 1997.44 1146.27 1999.58 1145.79 2001.5 1145.55 2003.2 1145.55Z" fill-rule="evenodd"/><text fill="#000000" fill-opacity="0" font-family="Arial,Arial_MSFontService,sans-serif" font-size="38.5718" x="1989.47" y="1179.3">2</text><path d="M2555.5 982.5C2555.5 939.422 2590.42 904.5 2633.5 904.5 2676.58 904.5 2711.5 939.422 2711.5 982.5 2711.5 1025.58 2676.58 1060.5 2633.5 1060.5 2590.42 1060.5 2555.5 1025.58 2555.5 982.5Z" stroke="#172C51" stroke-width="4.58333" stroke-miterlimit="8" fill="#FFFFFF" fill-rule="evenodd"/><path d="M2633.48 956.941C2638.5 956.941 2642.3 958.042 2644.86 960.244 2647.43 962.446 2648.72 965.641 2648.72 969.828 2648.72 971.26 2648.57 972.577 2648.29 973.78 2648.01 974.982 2647.56 976.171 2646.95 977.346 2646.34 978.521 2645.53 979.785 2644.5 981.135 2643.47 982.486 2642.34 983.858 2641.1 985.249 2639.85 986.64 2637.71 988.957 2634.65 992.199 2629.52 997.63 2625.75 1002.37 2623.34 1006.42L2638.62 1006.42C2639.95 1006.42 2641.01 1006.34 2641.83 1006.18 2642.64 1006.02 2643.28 1005.75 2643.77 1005.37 2644.26 1004.99 2644.64 1004.5 2644.93 1003.89 2645.21 1003.28 2645.57 1002.34 2646 1001.07L2649.44 1001.07 2648.76 1012.91 2615.4 1012.91 2615.4 1010.96C2616.56 1008.13 2618.13 1005.22 2620.1 1002.25 2622.08 999.278 2624.87 995.779 2628.49 991.754 2631.63 988.295 2633.88 985.674 2635.26 983.891 2636.77 981.946 2637.9 980.264 2638.64 978.846 2639.39 977.427 2639.92 976.09 2640.24 974.833 2640.57 973.577 2640.73 972.314 2640.73 971.044 2640.73 969.018 2640.41 967.228 2639.76 965.674 2639.11 964.121 2638.12 962.898 2636.78 962.007 2635.44 961.115 2633.76 960.669 2631.73 960.669 2626.68 960.669 2623.28 963.479 2621.52 969.099L2616.62 969.099 2616.62 961.318C2619.89 959.778 2622.95 958.663 2625.8 957.974 2628.65 957.285 2631.21 956.941 2633.48 956.941Z" fill-rule="evenodd"/><text fill="#000000" fill-opacity="0" font-family="Arial,Arial_MSFontService,sans-serif" font-size="55.9683" x="2615.4" y="1005.91">2</text><path d="M2516.5 1402.5C2516.5 1359.42 2551.42 1324.5 2594.5 1324.5 2637.58 1324.5 2672.5 1359.42 2672.5 1402.5 2672.5 1445.58 2637.58 1480.5 2594.5 1480.5 2551.42 1480.5 2516.5 1445.58 2516.5 1402.5Z" stroke="#172C51" stroke-width="4.58333" stroke-miterlimit="8" fill="#FFFFFF" fill-rule="evenodd"/><path d="M2596.99 1376.95 2599.22 1376.95C2599.06 1379.55 2598.98 1383.14 2598.98 1387.73L2598.98 1422.34C2598.98 1423.91 2599.07 1425.09 2599.24 1425.89 2599.42 1426.69 2599.73 1427.34 2600.18 1427.84 2600.62 1428.34 2601.26 1428.73 2602.1 1429.01 2602.94 1429.29 2603.99 1429.51 2605.26 1429.66 2606.53 1429.81 2608.21 1429.91 2610.29 1429.96L2610.29 1432.92 2580.34 1432.92 2580.34 1429.96C2583.34 1429.83 2585.48 1429.65 2586.76 1429.42 2588.04 1429.19 2589.02 1428.84 2589.7 1428.38 2590.37 1427.92 2590.87 1427.27 2591.18 1426.44 2591.49 1425.6 2591.64 1424.24 2591.64 1422.34L2591.64 1389.48C2591.64 1388.4 2591.46 1387.61 2591.08 1387.11 2590.7 1386.61 2590.15 1386.36 2589.42 1386.36 2588.55 1386.36 2587.32 1386.8 2585.73 1387.69 2584.13 1388.58 2582.16 1389.81 2579.81 1391.38L2578.03 1388.26Z" fill-rule="evenodd"/><text fill="#000000" fill-opacity="0" font-family="Arial,Arial_MSFontService,sans-serif" font-size="55.9683" x="2578.03" y="1425.93">1</text><path d="M2866.5 1309.5C2866.5 1266.42 2901.2 1231.5 2944 1231.5 2986.8 1231.5 3021.5 1266.42 3021.5 1309.5 3021.5 1352.58 2986.8 1387.5 2944 1387.5 2901.2 1387.5 2866.5 1352.58 2866.5 1309.5Z" stroke="#172C51" stroke-width="4.58333" stroke-miterlimit="8" fill="#FFFFFF" fill-rule="evenodd"/><path d="M2943.69 1283.24C2946.74 1283.24 2949.42 1283.71 2951.71 1284.66 2954.01 1285.6 2955.77 1286.96 2956.98 1288.73 2958.2 1290.5 2958.81 1292.61 2958.81 1295.07 2958.81 1297.37 2958.35 1299.39 2957.43 1301.13 2956.51 1302.87 2955.22 1304.39 2953.56 1305.69 2951.9 1306.99 2949.74 1308.26 2947.09 1309.5L2947.09 1309.87C2948.74 1310.16 2950.33 1310.67 2951.86 1311.39 2953.38 1312.1 2954.74 1313.03 2955.93 1314.16 2957.12 1315.3 2958.07 1316.65 2958.79 1318.23 2959.5 1319.81 2959.86 1321.62 2959.86 1323.64 2959.86 1326.78 2959.18 1329.56 2957.81 1331.99 2956.45 1334.42 2954.36 1336.34 2951.55 1337.75 2948.74 1339.15 2945.32 1339.86 2941.3 1339.86 2938.98 1339.86 2936.47 1339.59 2933.78 1339.07 2931.09 1338.54 2928.63 1337.84 2926.38 1336.98L2926.38 1328.39 2931.25 1328.39C2932.19 1331.2 2933.44 1333.24 2935 1334.51 2936.55 1335.78 2938.66 1336.41 2941.34 1336.41 2944.85 1336.41 2947.51 1335.45 2949.3 1333.53 2951.1 1331.61 2952 1328.78 2952 1325.02 2952 1321.08 2950.81 1318.07 2948.43 1315.98 2946.05 1313.9 2942.57 1312.86 2937.98 1312.86L2934.33 1312.86 2934.33 1309.3C2937.98 1309.08 2941.05 1308.38 2943.55 1307.19 2946.05 1306 2947.9 1304.48 2949.12 1302.61 2950.34 1300.75 2950.94 1298.65 2950.94 1296.33 2950.94 1293.33 2950.15 1291.02 2948.55 1289.4 2946.96 1287.78 2944.64 1286.97 2941.58 1286.97 2939.04 1286.97 2936.98 1287.66 2935.38 1289.03 2933.79 1290.41 2932.61 1292.52 2931.86 1295.36L2926.99 1295.36 2926.99 1287.66C2930.13 1286.17 2933.06 1285.06 2935.79 1284.33 2938.52 1283.6 2941.15 1283.24 2943.69 1283.24Z" fill-rule="evenodd"/><text fill="#000000" fill-opacity="0" font-family="Arial,Arial_MSFontService,sans-serif" font-size="56.6167" x="2926.38" y="1332.78">3</text><path d="M2.27513-0.274805 31.566 242.227 27.0158 242.777-2.27513 0.274805ZM42.3921 236.303 32.0389 265.253 15.0905 239.6Z" transform="matrix(1 0 0 -1 2594.5 1324.75)"/><path d="M2619.59 1135.49 2855.55 1263.76 2853.37 1267.79 2617.41 1139.51ZM2857 1251.5 2874.59 1276.72 2843.87 1275.66Z"/><path d="M2506.45 1190.26C2508.15 1190.26 2509.5 1190.82 2510.49 1191.94 2511.47 1193.06 2511.96 1194.53 2511.96 1196.34 2511.96 1197.69 2511.71 1199.08 2511.19 1200.51L2511.72 1200.72C2514.37 1197.12 2516.92 1194.49 2519.36 1192.81 2521.81 1191.14 2524.28 1190.3 2526.8 1190.3 2528.77 1190.3 2530.42 1190.45 2531.74 1190.75L2529.8 1199.83 2525.62 1199.83C2525.46 1198.69 2525.23 1197.81 2524.93 1197.19 2524.64 1196.57 2524.28 1196.14 2523.88 1195.89 2523.47 1195.65 2522.96 1195.53 2522.34 1195.53 2521.37 1195.53 2520.31 1195.95 2519.16 1196.79 2518.01 1197.62 2516.72 1198.93 2515.29 1200.72 2513.86 1202.5 2512.71 1204.22 2511.86 1205.86 2511.01 1207.51 2510.3 1209.61 2509.74 1212.15L2505.89 1229.69 2498.87 1229.69 2504.75 1204C2505.13 1202.38 2505.37 1201.12 2505.48 1200.23 2505.59 1199.34 2505.64 1198.6 2505.64 1198 2505.64 1196.92 2505.47 1196.14 2505.12 1195.65 2504.76 1195.16 2504.21 1194.92 2503.45 1194.92 2502.62 1194.92 2501.73 1195.27 2500.8 1195.95 2499.87 1196.64 2498.59 1197.89 2496.97 1199.7L2494.66 1197.43C2497.14 1194.84 2499.23 1193 2500.9 1191.9 2502.58 1190.81 2504.43 1190.26 2506.45 1190.26Z" fill-rule="evenodd"/><text fill="#000000" fill-opacity="0" font-family="Arial,Arial_MSFontService,sans-serif" font-size="39.4331" x="2494.66" y="1224.76">­ЮЉЪ</text><path d="M2523.62 1164.36 2533.8 1173.16 2533.8 1175.51 2523.62 1184.3 2521.47 1181.87 2527.96 1176.24 2503.24 1176.24 2503.24 1172.43 2527.96 1172.43 2521.47 1166.8Z" fill-rule="evenodd"/><text fill="#000000" fill-opacity="0" font-family="Arial,Arial_MSFontService,sans-serif" font-size="19.9395" x="2503.24" y="1181.81">нд</text><path d="M2541.33 1207.97C2542.92 1207.97 2544.41 1208.13 2545.79 1208.47 2547.17 1208.81 2548.36 1209.32 2549.37 1210.01 2550.39 1210.69 2551.18 1211.55 2551.74 1212.57 2552.31 1213.59 2552.59 1214.78 2552.59 1216.13 2552.59 1217.4 2552.41 1218.52 2552.06 1219.49 2551.7 1220.47 2551.15 1221.35 2550.4 1222.14 2549.66 1222.94 2548.74 1223.66 2547.66 1224.3 2546.58 1224.95 2545.33 1225.57 2543.92 1226.16L2543.92 1226.52C2545.25 1226.76 2546.5 1227.14 2547.65 1227.67 2548.8 1228.19 2549.81 1228.86 2550.67 1229.66 2551.53 1230.47 2552.21 1231.4 2552.71 1232.45 2553.21 1233.5 2553.46 1234.66 2553.46 1235.93 2553.46 1237.52 2553.16 1239 2552.56 1240.36 2551.97 1241.72 2551.07 1242.89 2549.88 1243.89 2548.69 1244.88 2547.22 1245.65 2545.47 1246.21 2543.73 1246.77 2541.68 1247.04 2539.34 1247.04 2537.49 1247.04 2535.61 1246.86 2533.71 1246.49 2531.8 1246.13 2529.99 1245.64 2528.29 1245.05L2528.29 1238.61 2532.13 1238.61C2532.45 1239.61 2532.82 1240.46 2533.26 1241.16 2533.7 1241.87 2534.21 1242.44 2534.79 1242.89 2535.38 1243.34 2536.06 1243.66 2536.82 1243.86 2537.58 1244.06 2538.45 1244.15 2539.43 1244.15 2541.99 1244.15 2543.93 1243.54 2545.25 1242.32 2546.57 1241.1 2547.23 1239.25 2547.23 1236.77 2547.23 1234.13 2546.36 1232.13 2544.62 1230.77 2542.89 1229.41 2540.31 1228.73 2536.89 1228.73L2534.27 1228.73 2534.27 1225.87C2536.36 1225.77 2538.16 1225.47 2539.68 1224.99 2541.2 1224.5 2542.46 1223.87 2543.48 1223.1 2544.49 1222.32 2545.24 1221.42 2545.74 1220.39 2546.24 1219.35 2546.49 1218.25 2546.49 1217.08 2546.49 1215.17 2545.92 1213.67 2544.79 1212.57 2543.66 1211.47 2542.02 1210.91 2539.87 1210.91 2538.07 1210.91 2536.55 1211.41 2535.33 1212.4 2534.11 1213.4 2533.17 1214.88 2532.52 1216.84L2528.73 1216.84 2528.73 1210.97C2531.08 1209.98 2533.29 1209.23 2535.36 1208.73 2537.44 1208.22 2539.43 1207.97 2541.33 1207.97Z" fill-rule="evenodd"/><text fill="#000000" fill-opacity="0" font-family="Arial,Arial_MSFontService,sans-serif" font-size="39.0781" x="2528.29" y="1242.16">3</text><path d="M2750.76 1123.71C2749.33 1123.71 2747.82 1123.77 2746.22 1123.87L2741.04 1147.34 2745.82 1147.34C2749.74 1147.34 2752.83 1146.81 2755.1 1145.76 2757.37 1144.7 2759.17 1142.98 2760.49 1140.57 2761.81 1138.17 2762.48 1135.57 2762.48 1132.79 2762.48 1131.63 2762.37 1130.59 2762.15 1129.69 2761.94 1128.78 2761.65 1128.03 2761.3 1127.44 2760.95 1126.85 2760.5 1126.32 2759.96 1125.86 2759.42 1125.4 2758.75 1125 2757.94 1124.66 2757.13 1124.33 2756.19 1124.08 2755.12 1123.93 2754.05 1123.79 2752.6 1123.71 2750.76 1123.71ZM2734.51 1120.15 2752.55 1120.15C2755.41 1120.15 2757.75 1120.31 2759.56 1120.65 2761.37 1120.99 2762.91 1121.5 2764.2 1122.17 2765.48 1122.85 2766.56 1123.72 2767.42 1124.79 2768.28 1125.85 2768.93 1127.06 2769.37 1128.39 2769.8 1129.73 2770.01 1131.16 2770.01 1132.67 2770.01 1136.83 2768.74 1140.37 2766.2 1143.29 2763.66 1146.2 2759.92 1148.42 2754.98 1149.93L2754.98 1150.38C2756.28 1151.35 2757.32 1152.51 2758.12 1153.86 2758.92 1155.22 2759.56 1157.09 2760.04 1159.5L2760.98 1164.2C2761.27 1165.68 2761.61 1167.02 2761.99 1168.21 2762.37 1169.4 2762.82 1170.35 2763.35 1171.05 2763.87 1171.75 2764.47 1172.28 2765.13 1172.63 2765.79 1172.98 2766.76 1173.26 2768.03 1173.48L2767.62 1175.47 2756.4 1175.47C2755.53 1173.06 2754.76 1170.2 2754.09 1166.87L2752.3 1158.28C2752.01 1156.8 2751.65 1155.55 2751.23 1154.53 2750.81 1153.52 2750.31 1152.74 2749.73 1152.18 2749.15 1151.63 2748.47 1151.26 2747.7 1151.09 2746.93 1150.91 2745.99 1150.82 2744.89 1150.82L2740.27 1150.82 2737.43 1163.67C2737.19 1164.73 2737.02 1165.56 2736.92 1166.18 2736.83 1166.81 2736.75 1167.46 2736.68 1168.15 2736.61 1168.84 2736.58 1169.45 2736.58 1169.99 2736.58 1170.83 2736.71 1171.49 2736.98 1171.96 2737.25 1172.43 2737.66 1172.78 2738.2 1172.99 2738.74 1173.21 2739.67 1173.37 2741 1173.48L2740.55 1175.47 2723.89 1175.47 2724.34 1173.48C2725.37 1173.32 2726.14 1173.05 2726.65 1172.69 2727.16 1172.32 2727.6 1171.82 2727.95 1171.17 2728.3 1170.52 2728.62 1169.73 2728.92 1168.8 2729.22 1167.87 2729.66 1166.06 2730.26 1163.39L2737.15 1132.18C2737.74 1129.48 2738.04 1127.35 2738.04 1125.78 2738.04 1124.45 2737.73 1123.54 2737.11 1123.02 2736.48 1122.51 2735.47 1122.21 2734.07 1122.13Z" fill-rule="evenodd"/><text fill="#000000" fill-opacity="0" font-family="Arial,Arial_MSFontService,sans-serif" font-size="55.3198" x="2723.89" y="1168.55">­ЮЉЁ</text><path d="M2764.29 1094.48 2774.46 1103.28 2774.46 1105.63 2764.29 1114.42 2762.14 1111.99 2768.63 1106.36 2758.62 1106.36 2743.9 1106.36 2734.3 1106.36 2734.3 1102.55 2743.9 1102.55 2758.62 1102.55 2768.63 1102.55 2762.14 1096.91Z" fill-rule="evenodd"/><path d="M2790.59 1153.74C2792.18 1153.74 2793.67 1153.91 2795.05 1154.24 2796.43 1154.58 2797.62 1155.09 2798.64 1155.78 2799.65 1156.46 2800.44 1157.32 2801 1158.34 2801.57 1159.36 2801.85 1160.55 2801.85 1161.9 2801.85 1163.17 2801.67 1164.29 2801.32 1165.26 2800.96 1166.24 2800.41 1167.12 2799.66 1167.91 2798.92 1168.71 2798.01 1169.43 2796.92 1170.07 2795.84 1170.72 2794.59 1171.34 2793.18 1171.94L2793.18 1172.29C2794.52 1172.53 2795.76 1172.91 2796.91 1173.44 2798.06 1173.97 2799.07 1174.63 2799.93 1175.44 2800.79 1176.24 2801.48 1177.17 2801.97 1178.22 2802.47 1179.27 2802.72 1180.43 2802.72 1181.71 2802.72 1183.29 2802.42 1184.77 2801.82 1186.13 2801.23 1187.49 2800.33 1188.67 2799.14 1189.66 2797.95 1190.65 2796.48 1191.43 2794.73 1191.98 2792.99 1192.54 2790.94 1192.82 2788.6 1192.82 2786.75 1192.82 2784.87 1192.63 2782.97 1192.26 2781.06 1191.9 2779.26 1191.42 2777.55 1190.82L2777.55 1184.39 2781.39 1184.39C2781.71 1185.38 2782.08 1186.23 2782.52 1186.93 2782.96 1187.64 2783.47 1188.21 2784.06 1188.66 2784.64 1189.11 2785.32 1189.43 2786.08 1189.63 2786.85 1189.83 2787.71 1189.93 2788.69 1189.93 2791.25 1189.93 2793.19 1189.32 2794.51 1188.09 2795.83 1186.87 2796.49 1185.02 2796.49 1182.54 2796.49 1179.9 2795.62 1177.9 2793.88 1176.54 2792.15 1175.18 2789.57 1174.5 2786.16 1174.5L2783.53 1174.5 2783.53 1171.64C2785.62 1171.54 2787.42 1171.25 2788.94 1170.76 2790.46 1170.27 2791.73 1169.64 2792.74 1168.87 2793.75 1168.09 2794.51 1167.19 2795 1166.16 2795.5 1165.12 2795.75 1164.02 2795.75 1162.85 2795.75 1160.95 2795.18 1159.44 2794.05 1158.34 2792.92 1157.24 2791.28 1156.69 2789.13 1156.69 2787.33 1156.69 2785.81 1157.18 2784.59 1158.18 2783.37 1159.17 2782.43 1160.65 2781.78 1162.61L2777.99 1162.61 2777.99 1156.75C2780.34 1155.75 2782.55 1155 2784.62 1154.5 2786.7 1153.99 2788.69 1153.74 2790.59 1153.74Z" fill-rule="evenodd"/><text fill="#000000" fill-opacity="0" font-family="Arial,Arial_MSFontService,sans-serif" font-size="39.0781" x="2777.55" y="1187.93">3</text></g></svg>